# xmcd CD database file
#
# Track frame offsets:
#	150
#	49293
#	62615
#	126180
#	172482
#	196377
#
# Disc length: 3090 seconds
#
# Revision: 0
# Processed by: cddbd v1.5.1PL2 Copyright (c) Steve Scherf et al.
# Submitted via: CDex 1.51
#
DISCID=5b0c1006
DTITLE=The Test Tubes (Israelieivitch, Reitzenstein, Stewart, Young) - The Test Tubes
DYEAR=1998
DGENRE=Jazz
TTITLE0=The Thermometers
TTITLE1=Small Alembic
TTITLE2=Test Tubes
TTITLE3=Under My Skin
TTITLE4=Oil of Cedar
TTITLE5=Rose Oil
EXTD=YEAR: 1998
EXTT0=
EXTT1=
EXTT2=
EXTT3=
EXTT4=
EXTT5=
PLAYORDER=
